<mxfile host="app.diagrams.net" modified="2022-02-14T08:34:12.335Z" agent="5.0 (Macintosh; Intel Mac OS X 10_15_7) AppleWebKit/537.36 (KHTML, like Gecko) Chrome/98.0.4758.80 Safari/537.36" etag="j5nXNWr9JjJeBy4HqPvO" version="16.5.2" type="github">
  <diagram id="Ql20LdbbifCKd576L3Ry" name="Page-1">
    <mxGraphModel dx="2893" dy="1129" grid="1" gridSize="10" guides="1" tooltips="1" connect="1" arrows="1" fold="1" page="1" pageScale="1" pageWidth="827" pageHeight="1169" math="0" shadow="0">
      <root>
        <mxCell id="0" />
        <mxCell id="1" parent="0" />
        <mxCell id="u5nYGVWiweK-iprHQGMd-1" value="" style="rounded=0;whiteSpace=wrap;html=1;" vertex="1" parent="1">
          <mxGeometry x="-480" width="1970" height="1540" as="geometry" />
        </mxCell>
        <mxCell id="u5nYGVWiweK-iprHQGMd-6" style="edgeStyle=orthogonalEdgeStyle;rounded=0;orthogonalLoop=1;jettySize=auto;html=1;exitX=1;exitY=0.5;exitDx=0;exitDy=0;fontSize=17;entryX=0.07;entryY=0.4;entryDx=0;entryDy=0;entryPerimeter=0;" edge="1" parent="1" source="u5nYGVWiweK-iprHQGMd-2" target="u5nYGVWiweK-iprHQGMd-3">
          <mxGeometry relative="1" as="geometry">
            <Array as="points" />
          </mxGeometry>
        </mxCell>
        <mxCell id="u5nYGVWiweK-iprHQGMd-13" value="上行" style="edgeLabel;html=1;align=center;verticalAlign=middle;resizable=0;points=[];fontSize=17;" vertex="1" connectable="0" parent="u5nYGVWiweK-iprHQGMd-6">
          <mxGeometry x="0.0371" y="1" relative="1" as="geometry">
            <mxPoint x="41" y="-29" as="offset" />
          </mxGeometry>
        </mxCell>
        <mxCell id="u5nYGVWiweK-iprHQGMd-2" value="&lt;font style=&quot;font-size: 17px&quot;&gt;sdk&lt;/font&gt;" style="triangle;whiteSpace=wrap;html=1;" vertex="1" parent="1">
          <mxGeometry x="-220" y="990" width="60" height="80" as="geometry" />
        </mxCell>
        <mxCell id="u5nYGVWiweK-iprHQGMd-12" style="edgeStyle=orthogonalEdgeStyle;rounded=0;orthogonalLoop=1;jettySize=auto;html=1;exitX=0.88;exitY=0.25;exitDx=0;exitDy=0;exitPerimeter=0;entryX=0;entryY=0.5;entryDx=0;entryDy=0;fontSize=17;" edge="1" parent="1" source="u5nYGVWiweK-iprHQGMd-3" target="u5nYGVWiweK-iprHQGMd-11">
          <mxGeometry relative="1" as="geometry">
            <Array as="points">
              <mxPoint x="450" y="855" />
              <mxPoint x="450" y="1000" />
            </Array>
          </mxGeometry>
        </mxCell>
        <mxCell id="u5nYGVWiweK-iprHQGMd-14" value="下行" style="edgeLabel;html=1;align=center;verticalAlign=middle;resizable=0;points=[];fontSize=17;" vertex="1" connectable="0" parent="u5nYGVWiweK-iprHQGMd-12">
          <mxGeometry x="-0.1611" y="2" relative="1" as="geometry">
            <mxPoint x="-62" y="-12" as="offset" />
          </mxGeometry>
        </mxCell>
        <mxCell id="u5nYGVWiweK-iprHQGMd-3" value="&lt;font style=&quot;font-size: 22px&quot;&gt;sfu&lt;/font&gt;" style="ellipse;shape=cloud;whiteSpace=wrap;html=1;fillColor=#dae8fc;strokeColor=#6c8ebf;" vertex="1" parent="1">
          <mxGeometry x="60" y="810" width="290" height="180" as="geometry" />
        </mxCell>
        <mxCell id="u5nYGVWiweK-iprHQGMd-11" value="&lt;font style=&quot;font-size: 17px&quot;&gt;sdk&lt;/font&gt;" style="triangle;whiteSpace=wrap;html=1;" vertex="1" parent="1">
          <mxGeometry x="580" y="960" width="60" height="80" as="geometry" />
        </mxCell>
      </root>
    </mxGraphModel>
  </diagram>
</mxfile>
